<?xml version="1.0" encoding="UTF-8"?>
<svg id="Layer_1" data-name="Layer 1" xmlns="http://www.w3.org/2000/svg" viewBox="0 0 28 20">
  <defs>
    <style>
      .cls-1 {
        fill: #fff;
      }

      .cls-2 {
        fill: #006c35;
      }
    </style>
  </defs>
  <path class="cls-2" d="M28.04-.17H-.13V20.17H28.04V-.17Z"/>
  <g>
    <path class="cls-1" d="M6.85,6.91c.49,.05,.22-.84,.4-1,.03-.08,.1-.08,.1,.02v.75c0,.24,.16,.32,.28,.37,.13-.01,.22,0,.27,.12l.06,1.3s.3,.09,.31-.73c.01-.48-.1-.88-.03-.97,0-.09,.12-.1,.2-.05,.13,.09,.19,.2,.39,.16,.31-.08,.49-.23,.49-.47-.02-.22-.04-.45-.14-.67,.01-.04-.06-.15-.05-.19,.05,.09,.14,.08,.16,0-.05-.17-.13-.34-.26-.41-.11-.1-.27-.08-.32,.12-.03,.23,.08,.5,.25,.72,.04,.09,.09,.23,.06,.36-.09,.05-.18,.03-.25-.05,0,0-.24-.18-.24-.22,.06-.41,.01-.46-.02-.57-.03-.16-.1-.21-.16-.32-.06-.06-.14-.06-.18,0-.11,.19-.06,.59,.02,.77,.06,.16,.14,.27,.1,.27-.03,.09-.1,.07-.15-.04-.07-.22-.09-.55-.09-.7-.02-.18-.05-.58-.17-.68-.07-.1-.18-.05-.22,.04,0,.18,0,.37,.01,.54,.08,.3,.11,.56,.15,.86,.01,.41-.24,.18-.22-.03,.06-.26,.04-.68,0-.78-.04-.1-.09-.13-.18-.11-.08,0-.28,.21-.33,.57,0,0-.05,.19-.07,.35-.03,.19-.15,.32-.24-.03-.07-.25-.12-.87-.24-.72-.04,.48-.08,1.33,.33,1.41h0Z"/>
    <path class="cls-1" d="M7.59,7.26c-.41,0-1,.53-1.02,.83,.43-.21,.85-.41,1.29-.62-.07-.11,0-.2-.27-.21h0Z"/>
    <path class="cls-1" d="M9.84,8.84c.19-.63-.03-1.09,.07-1.09,.22,.23,.52,.03,.59-.05,.03-.04,.1-.07,.15-.01,.17,.12,.47,.06,.53-.15,.04-.22,.06-.43,.07-.65-.14,.04-.24,.07-.25,.13l-.03,.19c-.01,.06-.13,.06-.14-.01-.05-.24-.27-.27-.4,.1-.09,.07-.25,.09-.27-.02,.02-.25-.08-.28-.28-.17-.06-.49-.13-.96-.19-1.45,.08,0,.16,.06,.24-.04-.08-.26-.26-.79-.36-.83-.05-.06-.09-.02-.15,0-.1,.03-.2,.12-.17,.3,.12,.75,.21,1.33,.33,2.08,.02,.09-.05,.2-.15,.19-.16-.11-.2-.33-.48-.32-.2,0-.43,.22-.46,.43-.03,.17-.05,.35,0,.49,.14,.17,.31,.15,.46,.11,.12-.05,.22-.17,.26-.14,.03,.04,0,.44-.57,.74-.35,.16-.63,.19-.78-.09-.09-.18,0-.86-.22-.7-.68,1.75,1.59,1.99,1.84,.07,.02-.08,.12-.16,.14-.03-.05,1.74-1.75,1.86-2.04,1.31-.07-.13-.09-.42-.1-.59-.04-.34-.22-.21-.25,.13-.03,.19-.02,.24-.02,.42,.09,1.37,2.28,.78,2.64-.35h0Zm-.84-1.19s-.08,.02-.12,.02c-.05,0-.08-.01-.11-.05-.01-.05,.03-.09,.05-.13,.02-.04,.15-.08,.2,.03,.02,.04,0,.1-.02,.13Z"/>
    <path class="cls-1" d="M10.51,6.1c.14-.05,.78-.79,.78-.79-.03-.03-.06-.05-.1-.08-.04-.03-.03-.06,0-.09,.16-.09,.11-.3,.03-.39-.11-.05-.24-.05-.35,0-.11,.11-.14,.28-.05,.39,.09,.04,.17,.13,.12,.18-.26,.28-.99,.77-.9,.78,.02,.02,.46,.02,.48,0h0Zm.48-1.16s.09,.03,.12,.08,.01,.11-.03,.12h0s-.09-.03-.12-.08c-.02-.06-.01-.11,.03-.12Zm-4.19,4.48c-.11,.22-.15,.07-.16-.05-.01-.2,0-.41,.03-.61,.03-.17,0-.12-.05-.05-.24,.38-.26,.96-.13,1.13,.07,.08,.19,.12,.27,.09,.15-.07,.22-.37,.18-.49-.05-.08-.09-.09-.14-.02Zm7.96-4.07c.28,.37,.54,.75,.8,1.14,.05,.34,.09,.66,.11,.99,.04,.63,.06,1.31,.02,1.97,.12,0,.31-.19,.37-.48,.04-.4-.02-1.1-.02-1.33,0-.15-.01-.29-.02-.44,.31,.5,.61,1.03,.9,1.62,.11-.05,.08-.65,.02-.73-.23-.5-.56-1-.66-1.19-.04-.07-.17-.27-.32-.5-.01-.18-.04-.37-.07-.55-.05-.33,.14,.04,.11-.16-.06-.33-.25-.56-.46-.87-.07-.1-.07-.12-.18,.02-.04,.09-.06,.18-.05,.27-.03-.05-.07-.1-.11-.14-.12-.1-.24-.2-.36-.3-.08-.06-.27-.16-.31,.01-.02,.12-.01,.24,.02,.36,.02,.08,.14,.22,.2,.3h0Zm.58-.02c.01,.06,.03,.13,.04,.2v.06s-.06-.09-.09-.13c-.13-.15-.02-.12,.05-.13h0Z"/>
    <path class="cls-1" d="M17.02,8.98c-.27,.28-.66,.63-1.09,.8-.05,.05,.11,.27,.32,.27,.35-.04,.65-.24,.93-.75,.08-.12,.21-.37,.21-.57,.03-1.16-.06-2.07-.23-2.91-.01-.07,0-.14,0-.2,.02-.03,.1,0,.14-.07,.06-.06-.16-.56-.28-.75-.04-.09-.06-.14-.13,.01-.08,.13-.13,.34-.12,.55,.17,1.14,.22,2.15,.32,3.29,0,.11,0,.27-.08,.33h0Zm4.56-2.9c-.01-.08-.05-.27-.03-.29,.02-.06,.14,0,.18-.06,.06-.06-.29-.51-.42-.7-.04-.09-.06-.14-.13,.01-.08,.13-.1,.35-.07,.55,.18,1.24,.32,2.18,.35,3.28-.02,.1-.02,.16-.07,.29-.11,.14-.23,.31-.34,.4-.11,.08-.35,.16-.43,.23-.25,.14-.25,.31-.05,.32,.35-.04,.76-.07,1.04-.5,.08-.12,.17-.44,.17-.64,.03-1.16-.01-2.03-.19-2.87h0Zm-2.62,.97c0-.16,.02-.37,.03-.5,0-.05,.02-.1,.06-.12,.05-.01,.13,.05,.13,0,0-.1-.03-.25-.09-.32-.08-.12-.29-.09-.32,.09,0,.07,.03,.1,.03,.16,0,.03-.05,.06-.13,.02,.01-.01-.06-.11-.06-.11-.07-.04-.16,0-.21,.04-.04,.08-.05,.17-.02,.26,.09,.18,.42,.48,.58,.48h0Z"/>
    <path class="cls-1" d="M18.85,5.68c.23,.28,.46,.57,.7,.86,.05,.65,.06,1.18,.11,1.82,0,.27-.09,.51-.17,.55,0,0-.12,.07-.2,0-.06-.02-.3-.4-.3-.4-.12-.11-.2-.08-.29,0-.24,.23-.35,.66-.51,.96-.04,.07-.16,.12-.29,0-.33-.45-.14-1.1-.18-.93-.29,.33-.17,.88-.1,1,.1,.19,.18,.32,.37,.42,.17,.13,.31,.05,.38-.04,.17-.18,.18-.64,.26-.73,.06-.17,.2-.14,.27-.06,.06,.09,.15,.16,.25,.21,.16,.14,.36,.17,.55,.04,.13-.07,.22-.17,.29-.35,.08-.23,.04-1.26,.02-1.88,.12,.16,.24,.32,.36,.48,.05,.52,.08,1.04,.06,1.56-.01,.11,.37-.31,.36-.51,0-.16,0-.31,0-.44,.18,.28,.36,.56,.53,.86,.1-.05,.07-.65,0-.73-.19-.32-.45-.66-.63-.9-.01-.03-.02-.06-.03-.09-.07-.17-.03-.3-.06-.47-.03-.18-.02-.44-.08-.65-.01-.08-.06-.34-.04-.37,.02-.06,.1,0,.14-.07,.06-.06-.2-.72-.33-.91-.05-.08-.13-.06-.24,.08-.1,.09-.06,.3-.02,.49,.09,.48,.17,.93,.23,1.38-.14-.19-.28-.37-.43-.56v-.03s-.03-.41-.05-.51c0-.04-.01-.05,.03-.05,.04,.04,.05,.04,.08,.05,.04,0,.08-.07,.06-.13l-.4-.74s-.07-.07-.13,0c-.06,.06-.1,.14-.1,.22,.01,.18,.04,.36,.05,.53l.02,.1s-.04-.05-.05-.06c-.34-.36,.16-.06-.07-.34-.19-.21-.24-.27-.41-.4-.08-.05-.13-.15-.16,.02-.01,.15-.02,.3-.01,.45,0,.07,.07,.2,.14,.28h0Zm-6.96,.84c.2,.08,.32-.29,.4-.71,.05-.12,.1-.13,.13-.07,0,.55,.04,.67,.18,.84,.31,.24,.57,.03,.59,.01l.24-.24c.05-.06,.13-.06,.2-.01,.08,.07,.06,.18,.22,.27,.13,.05,.42,.01,.49-.1,.09-.15,.11-.21,.15-.26,.06-.09,.17-.05,.17-.02-.01,.05-.07,.1-.03,.18,.08,.06,.09,.02,.14,0,.16-.08,.28-.42,.28-.42,0-.13-.06-.12-.11-.09-.06,.04-.06,.05-.13,.09-.08,.01-.23,.06-.3-.05-.08-.14-.08-.33-.14-.47,0-.01-.1-.22,0-.23,.05,0,.15,.04,.17-.05,.05-.08-.11-.32-.21-.44-.09-.1-.22-.11-.35-.01-.09,.08-.08,.17-.09,.26-.03,.12,0,.25,.08,.35,.09,.17,.25,.39,.19,.7,0,0-.09,.15-.25,.13-.07-.01-.18-.04-.23-.47-.04-.33,.01-.78-.13-1-.05-.13-.09-.25-.21-.03-.03,.09-.17,.22-.07,.49,.08,.17,.12,.45,.08,.76-.06,.09-.07,.12-.15,.21-.11,.11-.22,.09-.31,.04-.08-.06-.15-.08-.18-.26,0-.28,.02-.74-.03-.84-.08-.15-.2-.1-.26-.05-.26,.24-.38,.63-.46,.95-.07,.23-.15,.16-.2,.07-.13-.12-.14-1.07-.3-.92-.25,.72,.14,1.5,.42,1.42h0Z"/>
    <path class="cls-1" d="M15.63,8.06l-.08-.04h-1.47c-.08-.04-.05-.06,0-.08,.35-.05,.98-.15,1.02-.75,0-.31-.13-.52-.52-.57-.28,.02-.48,.29-.45,.59-.01,.08,.03,.24-.06,.26-.54,.05-1.13,.39-1.15,.63-.03,.02-.11-.04-.1-.15-.03-.44-.15-.87-.37-1.26-.17-.17-.12-.11-.23-.03-.07,.08-.09,.14-.08,.31,0,0,.14,.39,.25,.66,.08,.28,.15,.59,.1,.89-.18,.39-.55,.75-.9,.94-.18,.06-.34,.04-.38,0-.11-.08-.11-.21-.1-.22,.3-.21,.64-.37,.9-.93,.08-.21,.1-.34,.02-.67-.02-.12-.07-.22-.15-.31,.05-.03,.18,.07,.21,.01-.04-.18-.13-.35-.26-.48-.11-.1-.22-.11-.32-.02-.11,.06-.13,.28-.08,.47,.06,.14,.22,.17,.33,.46,0,0,.04,.22-.02,.3-.05,.14-.64,.61-.68,.64-.02,.02,0-.01-.01-.09,0-.1,.04-.32,.03-.32-.19,.13-.26,.51-.29,.63-.49,.34-1.05,.59-1.37,.94-.17,.26,1.16-.3,1.31-.37,.03,.03,.03,.14,.12,.25,.14,.19,.43,.3,.71,.23,.48-.17,.75-.5,1.03-.86,.04-.06,.1-.1,.16-.06,.19,.43,.75,.74,1.47,.77,.17-.2,.09-.3,.02-.34,0,0-.35-.14-.41-.28-.03-.12,.05-.23,.21-.31,.46-.06,.91-.12,1.35-.26,0-.15,.09-.37,.15-.46,.06-.1,.09-.07,.08-.1h0Zm-1.21-.92s.09-.04,.16,0c.07,.04,.11,.1,.08,.14-.02,.04-.1,.04-.16,0-.07-.04-.1-.1-.08-.14Zm-.59,1.49c-.16,.05-.31,.1-.31,.32,.06,.32-.08,.21-.16,.17-.1-.07-.37-.24-.41-.6,0-.09,.06-.16,.17-.16,.16,.04,.41,.05,.61,.07,.17,.01,.26,.15,.1,.2h0Zm-5.45-3.52c.17,.08,.49,.05,.47-.23,0-.02,0-.11,0-.13-.03-.08-.13-.06-.15,.02,0,.03,.01,.07-.01,.09-.01,.01-.07,0-.07-.07,0-.02-.02-.05-.03-.06-.01,0-.02,0-.04,0-.02,0-.02,0-.04,.03,0,.02-.01,.04-.01,.06,0,.03-.01,.04-.03,.04-.02,0-.02,0-.03,0-.01-.01-.02-.02-.02-.04,0-.02,0-.05-.01-.07,0-.01-.02-.02-.04-.02-.09,0-.1,.11-.09,.15,0,0-.01,.2,.11,.25Z"/>
    <path class="cls-1" d="M13.57,6.89s-.02-.05-.03-.06c-.01,0-.02,0-.04,0-.02,0-.02,0-.04,.03,0,.02-.01,.04-.01,.06,0,.03-.01,.04-.03,.04-.02,0-.02,0-.04,0-.01-.01-.02-.02-.02-.04,0-.02,0-.05-.01-.07,0-.01-.02-.02-.04-.02-.09,0-.1,.11-.09,.15,0,0-.01,.2,.12,.25,.17,.08,.57,.03,.47-.23,0-.04,0-.09,0-.13-.03-.08-.13-.06-.15,.02,0,.03,.01,.07-.01,.09-.01,.01-.07,0-.06-.07h0Zm2.66-.55c.17,.08,.49,.05,.47-.23,0-.04,0-.09,0-.13-.03-.08-.13-.06-.15,.02,0,.03,.01,.07-.01,.09-.01,.01-.07,0-.07-.07,0-.02-.02-.05-.03-.06-.01,0-.02,0-.04,0-.02,0-.02,0-.04,.03,0,.02-.01,.04-.01,.06,0,.03-.01,.04-.03,.04-.02,0-.02,0-.04,0-.01-.01-.02-.02-.02-.04,0-.02,0-.05-.01-.07-.01-.01-.02-.02-.04-.02-.09,0-.1,.11-.09,.15,0,0,0,.2,.12,.25h0Zm.11-1.06c.06,.17-.05,.33,.02,.35,.06,.03,.14-.17,.17-.36,.04-.15-.07-.46-.22-.52-.09-.02-.22,.03-.18,.16-.02,.06,.19,.26,.22,.37h0Zm1.56,3.96c.12,0,.25-.27,.31-.54,.03-.37-.02-.59-.03-.81-.01-.22-.24-1.87-.29-2.04-.06-.31,.23-.04,.2-.22-.1-.23-.35-.56-.42-.76-.05-.08-.03-.16-.13-.02-.1,.32-.13,.58-.09,.77,.25,1.3,.5,2.38,.46,3.61Zm2.94-3.4c.03,.08-.04,.36,.02,.38,.05,.03,.13-.19,.15-.39,.01-.11-.07-.5-.2-.56-.08-.02-.2,.04-.17,.17-.02,.06,.17,.28,.2,.4Zm-10.26,2.86c.05,.02,.12-.14,.15-.29,.01-.08-.06-.36-.2-.41-.08-.02-.19,0-.16,.13,0,.06,.18,.14,.19,.29,.03,.06-.04,.26,.02,.28h0Zm-3.56-3.61c.03,.06-.03,.27,.03,.29,.05,.02,.12-.14,.14-.3,.01-.08,0-.37-.19-.43-.08-.02-.19,.03-.16,.13-.02,.05,.15,.21,.18,.31h0Zm3.83,.92c-.15,.08-.21,.32-.11,.46,.09,.12,.22,.08,.24,.08,.15,.02,.23-.28,.23-.28,0,0,0-.08-.17,.07-.07,.01-.08-.01-.1-.06-.02-.08,0-.16,.02-.23,.03-.07-.03-.1-.12-.05Zm1.13-.9s.08-.08,.09-.14c.02-.11-.12,.05-.14-.07-.03-.12,.06-.17,.15-.28,0-.08,0-.13-.11-.07-.08,.05-.23,.21-.23,.38,0,.1-.02,.1,.04,.16,.05,.07,.1,.06,.19,.01Zm1.02,.06c.1-.26,.1-.37,.1-.49-.03-.17-.14-.16-.22,.02-.03,.07-.07,.45-.06,.45-.03,.11,.12,.16,.18,.02Zm6.39,1.86s-.78,.56-.8,.58c-.08,.07-.04,.31,0,.28,.06,.02,.84-.51,.83-.58,.04,0,.05-.31-.03-.29h0Zm-.1,1.51c.05,.03,.19-.14,.19-.36,.02-.11-.04-.51-.18-.58-.08-.02-.2,.05-.16,.18-.02,.06,.1,.29,.13,.41,.03,.09-.03,.33,.02,.35Zm-4.44,1.17s.07,.06,.14,.02c.16-.06,.27-.12,.5-.18,.06,0,.06-.16-.04-.17-.12,0-.24,.01-.36,.11-.08,.02-.09-.03-.11-.07-.02-.1,.04-.18,.03-.25,0,0-.07-.06-.15-.03,0,0-.17,.11-.23,.19-.03,.03-.03,.05-.02,.09,.03,.06,.07,.04,.12,.01,.07,0,.1,.04,.1,.12-.03,.1,.01,.14,.01,.15h0Zm5.13,.13s-.04,.11,.04,.13c.15,.04,.49-.18,.49-.18,.05-.04,.04-.12,.03-.12-.03-.04-.1-.02-.15-.02-.02,0-.1-.01-.06-.08,.03-.04,.05-.08,.06-.12,.02-.05,0-.08-.08-.11-.08-.02-.12,0-.21,0-.05,.01-.07,.03-.08,.09,0,.09,.06,.09,.12,.12,.03,.04,.06,.08,0,.15-.05,.05-.09,.08-.15,.13h0Zm-.15,4.06h-1.17v-.39c0-.22-.18-.39-.39-.39s-.39,.18-.39,.39v.39H8.48s0,.78,2.35,.78h7.04v.39c0,.22,.18,.39,.39,.39s.39-.18,.39-.39v-.39h.78v.39c0,.22,.18,.39,.39,.39s.39-.18,.39-.39v-.78c0-.22-.18-.39-.39-.39Z"/>
  </g>
</svg>